<?xml version="1.0" encoding="iso-8859-1"?>
<svg height="800px" width="800px" viewBox="0 0 305 305"
     xmlns="http://www.w3.org/2000/svg">

  <!-- 中间蓝色 -->
  <path
    d="M95.506,152.511c0,31.426,25.567,56.991,56.994,56.991
       c31.425,0,56.99-25.566,56.99-56.991
       c0-31.426-25.565-56.993-56.99-56.993
       C121.073,95.518,95.506,121.085,95.506,152.511z"
    fill="#4285F4"/>

  <!-- 红色部分 -->
  <path
    d="M283.733,77.281c0.444-0.781,0.436-1.74-0.023-2.513
       c-13.275-22.358-32.167-41.086-54.633-54.159
       C205.922,7.134,179.441,0.012,152.5,0.012
       c-46.625,0-90.077,20.924-119.215,57.407
       c-0.643,0.804-0.727,1.919-0.212,2.81
       l42.93,74.355c0.45,0.78,1.28,1.25,2.164,1.25
       c0.112,0,0.226-0.008,0.339-0.023
       c1.006-0.137,1.829-0.869,2.083-1.852
       c8.465-32.799,38.036-55.706,71.911-55.706
       c2.102,0,4.273,0.096,6.455,0.282H281.56
       C282.459,78.545,283.289,78.063,283.733,77.281z"
    fill="#DB4437"/>

  <!-- 黄色部分 -->
  <path
    d="M292.175,95.226h-85.974c-1.016,0-1.931,0.615-2.314,1.555
       c-0.384,0.94-0.161,2.02,0.564,2.73
       c14.385,14.102,22.307,32.924,22.307,53
       c0,15.198-4.586,29.824-13.263,42.298
       l-61.346,106.252c-0.449,0.778-0.446,1.737,0.007,2.513
       c0.449,0.767,1.271,1.237,2.158,1.237
       c40.37-0.45,78.253-16.511,106.669-45.222
       C289.338,231.032,305,192.941,305,152.511
       c0-19.217-3.532-37.956-10.498-55.698
       C294.126,95.855,293.203,95.226,292.175,95.226z"
    fill="#F4B400"/>

  <!-- 绿色部分 -->
  <path
    d="M175.035,224.936c-0.621-0.803-1.663-1.148-2.646-0.876
       c-6.457,1.798-13.148,2.709-19.889,2.709
       c-28.641,0-55.038-16.798-67.251-42.794
       L23.911,77.719c-0.446-0.775-1.272-1.25-2.165-1.25
       c-0.898,0.005-1.725,0.49-2.165,1.272
       C6.767,100.456,0,126.311,0,152.511
       c0,36.755,13.26,72.258,37.337,99.969
       c23.838,27.435,56.656,45.49,92.411,50.84
       c0.883,0,1.713-0.47,2.164-1.25
       l42.941-74.378
       C175.732,226.839,175.657,225.739,175.035,224.936z"
    fill="#0F9D58"/>

</svg>

